<?xml version="1.0" encoding="UTF-8"?>
<svg width="40" height="100" viewBox="0 0 40 100" xmlns="http://www.w3.org/2000/svg">
  <!-- Treble clef with origin at bottom loop (coordinates: x=20, y=90) -->
  <!-- The bottom curl/loop is at y=90, which is our origin reference point -->
  <g fill="black" stroke="none">
    <!-- Main spiral starting from bottom loop (origin) -->
    <path d="M20,90 C8,90 0,82 0,70 C0,58 8,50 20,50 C32,50 40,42 40,30 C40,18 32,10 20,10 C14,10 10,14 10,20 C10,26 14,30 20,30 C26,30 30,26 30,20 C30,14 26,10 20,10"/>
    <!-- Vertical stem -->
    <path d="M20,10 L20,85"/>
    <!-- Bottom curl/loop (this is our origin point at y=90) -->
    <path d="M20,85 C26,85 30,89 30,95 C30,101 26,105 20,105 C14,105 10,101 10,95 C10,89 14,85 20,85"/>
    <!-- Top decoration -->
    <circle cx="20" cy="15" r="3"/>
  </g>
</svg>